<?xml version="1.0" standalone="no"?>
<!DOCTYPE svg PUBLIC "-//W3C//DTD SVG 20010904//EN"
 "http://www.w3.org/TR/2001/REC-SVG-20010904/DTD/svg10.dtd">
<svg version="1.0" xmlns="http://www.w3.org/2000/svg"
 width="512.000000pt" height="512.000000pt" viewBox="0 0 512.000000 512.000000"
 preserveAspectRatio="xMidYMid meet">
<metadata>
Created by potrace 1.11, written by Peter Selinger 2001-2013
</metadata>
<g transform="translate(0.000000,512.000000) scale(0.100000,-0.100000)"
fill="#000000" stroke="none">
<path d="M2305 4900 c-201 -23 -425 -81 -625 -160 -554 -221 -1028 -678 -1265
-1220 -90 -205 -156 -436 -187 -655 -19 -135 -16 -494 5 -638 121 -809 653
-1506 1392 -1822 319 -137 581 -190 935 -190 354 0 615 53 935 190 403 172
758 465 1005 830 111 165 174 283 245 460 104 258 153 495 162 790 11 347 -39
633 -168 958 -233 587 -722 1071 -1315 1303 -150 59 -322 107 -474 134 -142
25 -502 36 -645 20z m-1248 -1297 c54 -89 108 -176 323 -528 106 -173 410
-670 476 -777 l59 -97 3 749 2 750 215 0 215 0 0 -1135 0 -1135 -229 0 -230 0
-97 158 c-53 86 -107 173 -119 192 -12 19 -89 143 -170 275 -82 132 -223 362
-315 510 -92 149 -176 285 -186 303 -19 33 -19 27 -24 -700 l-5 -733 -212 -3
-213 -2 0 1135 0 1135 223 0 224 0 60 -97z m3003 74 c191 -37 370 -181 448
-359 57 -130 73 -355 38 -513 -42 -186 -164 -342 -336 -428 -139 -70 -192 -78
-587 -84 l-333 -5 0 -429 0 -429 -230 0 -230 0 0 1136 0 1136 578 -5 c451 -4
593 -8 652 -20z"/>
<path d="M3290 2989 l0 -322 248 6 c275 7 345 18 423 68 86 55 129 140 129
256 0 91 -25 155 -84 215 -82 82 -159 98 -488 98 l-228 0 0 -321z"/>
</g>
</svg>
